<svg xmlns="http://www.w3.org/2000/svg" xmlns:xlink="http://www.w3.org/1999/xlink" width="1200" height="76" viewBox="0 0 1200 76" role="img" aria-label="The Full Squad — every other project"><title>The Full Squad — every other project</title><defs><path id="pm-T" d="M342 625V0H258V625H25V698H575V625Z"/><path id="pm-H" d="M436 317H164V0H80V698H164V390H436V698H520V0H436Z"/><path id="pm-E" d="M90 0V698H520V625H174V390H508V317H174V73H520V0Z"/><path id="pm-F" d="M90 0V698H530V625H174V390H500V317H174V0Z"/><path id="pm-U" d="M164 698V279Q164 228 167.0 188.0Q170 148 183.0 119.5Q196 91 223.5 76.0Q251 61 300 61Q349 61 376.5 76.0Q404 91 417.0 119.5Q430 148 433.0 188.0Q436 228 436 279V698H520V299Q520 221 512.5 163.0Q505 105 481.5 66.0Q458 27 414.5 7.5Q371 -12 300 -12Q229 -12 185.5 7.5Q142 27 118.5 66.0Q95 105 87.5 163.0Q80 221 80 299V698Z"/><path id="pm-L" d="M120 0V698H204V73H535V0Z"/><path id="pm-S" d="M298 -12Q204 -12 144.0 22.5Q84 57 45 111L106 161Q147 110 192.5 85.0Q238 60 301 60Q377 60 417.0 95.0Q457 130 457 193Q457 244 428.0 272.5Q399 301 327 313L249 326Q198 335 163.5 353.0Q129 371 108.0 396.5Q87 422 78.0 452.5Q69 483 69 516Q69 612 132.0 661.0Q195 710 302 710Q386 710 443.5 682.0Q501 654 536 603L477 552Q448 590 407.0 614.0Q366 638 301 638Q230 638 192.0 608.0Q154 578 154 518Q154 471 182.5 441.5Q211 412 285 399L360 386Q411 377 446.0 359.0Q481 341 502.5 316.0Q524 291 533.0 260.0Q542 229 542 195Q542 98 478.5 43.0Q415 -12 298 -12Z"/><path id="pm-Q" d="M491 -164H374Q315 -164 287.5 -131.0Q260 -98 260 -46V-9Q207 -2 168.5 25.5Q130 53 105.0 98.5Q80 144 68.0 207.5Q56 271 56 349Q56 434 70.0 501.5Q84 569 114.0 615.0Q144 661 190.0 685.5Q236 710 300 710Q364 710 410.0 685.5Q456 661 486.0 615.0Q516 569 530.0 501.5Q544 434 544 349Q544 192 495.0 98.5Q446 5 340 -9V-96H491ZM300 61Q342 61 371.0 77.5Q400 94 419.0 124.0Q438 154 446.5 196.5Q455 239 455 292V406Q455 458 446.5 501.0Q438 544 419.0 574.0Q400 604 371.0 620.5Q342 637 300 637Q258 637 229.0 620.5Q200 604 181.0 574.0Q162 544 153.5 501.0Q145 458 145 406V292Q145 239 153.5 196.5Q162 154 181.0 124.0Q200 94 229.0 77.5Q258 61 300 61Z"/><path id="pm-A" d="M481 0 422 199H177L118 0H31L245 698H356L570 0ZM304 609H295L197 272H402Z"/><path id="pm-D" d="M95 698H290Q418 698 481.0 610.0Q544 522 544 349Q544 176 481.0 88.0Q418 0 290 0H95ZM286 73Q370 73 412.5 131.0Q455 189 455 295V403Q455 509 412.5 567.0Q370 625 286 625H179V73Z"/><path id="pm-V" d="M243 0 36 698H125L224 349L299 85H304L379 349L478 698H564L357 0Z"/><path id="pm-R" d="M174 0H90V698H344Q441 698 492.0 645.0Q543 592 543 497Q543 412 499.0 361.0Q455 310 371 302L549 0H455L285 298H174ZM342 369Q395 369 424.5 395.5Q454 422 454 471V523Q454 572 424.5 598.5Q395 625 342 625H174V369Z"/><path id="pm-Y" d="M258 0V274L17 698H113L213 516L298 357H302L389 516L489 698H583L342 274V0Z"/><path id="pm-O" d="M300 -12Q236 -12 190.0 12.5Q144 37 114.0 83.0Q84 129 70.0 196.0Q56 263 56 349Q56 434 70.0 501.5Q84 569 114.0 615.0Q144 661 190.0 685.5Q236 710 300 710Q364 710 410.0 685.5Q456 661 486.0 615.0Q516 569 530.0 501.5Q544 434 544 349Q544 263 530.0 196.0Q516 129 486.0 83.0Q456 37 410.0 12.5Q364 -12 300 -12ZM300 61Q342 61 371.0 77.5Q400 94 419.0 124.0Q438 154 446.5 196.5Q455 239 455 292V406Q455 458 446.5 501.0Q438 544 419.0 574.0Q400 604 371.0 620.5Q342 637 300 637Q258 637 229.0 620.5Q200 604 181.0 574.0Q162 544 153.5 501.0Q145 458 145 406V292Q145 239 153.5 196.5Q162 154 181.0 124.0Q200 94 229.0 77.5Q258 61 300 61Z"/><path id="pm-P" d="M90 0V698H344Q441 698 492.0 645.0Q543 592 543 497Q543 402 492.0 349.0Q441 296 344 296H174V0ZM174 369H342Q395 369 424.5 395.5Q454 422 454 471V523Q454 572 424.5 598.5Q395 625 342 625H174Z"/><path id="pm-J" d="M480 698V181Q480 137 465.0 101.0Q450 65 422.5 40.0Q395 15 357.0 1.5Q319 -12 274 -12Q194 -12 142.0 29.5Q90 71 74 146L154 163Q159 142 167.5 123.5Q176 105 190.5 91.5Q205 78 226.0 70.0Q247 62 276 62Q333 62 364.5 94.5Q396 127 396 196V625H144V698Z"/><path id="pm-C" d="M323 -12Q195 -12 132.5 81.0Q70 174 70 349Q70 524 132.5 617.0Q195 710 323 710Q371 710 406.0 697.0Q441 684 466.0 662.0Q491 640 508.0 612.5Q525 585 538 557L466 524Q457 547 445.0 567.5Q433 588 416.5 603.5Q400 619 377.5 628.0Q355 637 323 637Q240 637 199.5 574.0Q159 511 159 406V292Q159 187 199.5 124.0Q240 61 323 61Q355 61 377.5 70.0Q400 79 416.5 94.5Q433 110 445.0 130.5Q457 151 466 174L538 141Q525 112 508.0 85.0Q491 58 466.0 36.0Q441 14 406.0 1.0Q371 -12 323 -12Z"/></defs><rect width="1200" height="76" rx="14" fill="#0a0a0b"/><rect x="0.5" y="0.5" width="1199" height="75" rx="14" fill="none" stroke="#232327"/><circle cx="84" cy="38" r="3.5" fill="#c8a96a"/><g fill="#f2efe8" transform="translate(100.00 43.00) scale(0.01300 -0.01300)"><use xlink:href="#pm-T" x="0"/><use xlink:href="#pm-H" x="908"/><use xlink:href="#pm-E" x="1815"/><use xlink:href="#pm-F" x="3631"/><use xlink:href="#pm-U" x="4538"/><use xlink:href="#pm-L" x="5446"/><use xlink:href="#pm-L" x="6354"/><use xlink:href="#pm-S" x="8169"/><use xlink:href="#pm-Q" x="9077"/><use xlink:href="#pm-U" x="9985"/><use xlink:href="#pm-A" x="10892"/><use xlink:href="#pm-D" x="11800"/></g><g fill="#6b6b70" transform="translate(957.10 43.00) scale(0.01050 -0.01050)"><use xlink:href="#pm-E" x="0"/><use xlink:href="#pm-V" x="829"/><use xlink:href="#pm-E" x="1657"/><use xlink:href="#pm-R" x="2486"/><use xlink:href="#pm-Y" x="3314"/><use xlink:href="#pm-O" x="4971"/><use xlink:href="#pm-T" x="5800"/><use xlink:href="#pm-H" x="6629"/><use xlink:href="#pm-E" x="7457"/><use xlink:href="#pm-R" x="8286"/><use xlink:href="#pm-P" x="9943"/><use xlink:href="#pm-R" x="10771"/><use xlink:href="#pm-O" x="11600"/><use xlink:href="#pm-J" x="12429"/><use xlink:href="#pm-E" x="13257"/><use xlink:href="#pm-C" x="14086"/><use xlink:href="#pm-T" x="14914"/></g></svg>
